<svg xmlns="http://www.w3.org/2000/svg" width="24.792" height="18.794" viewBox="0 0 24.792 18.794">
  <g id="box" transform="translate(0 0)">
    <path id="Fill_1" data-name="Fill 1" d="M9.006,18.544a.2.2,0,0,1-.073-.013l-.008,0L.14,15.089a.219.219,0,0,1-.14-.2V7.6a.209.209,0,0,1,.026-.1A.15.15,0,0,1,.06,7.46l.008-.008L.077,7.44A.07.07,0,0,1,.1,7.42a.227.227,0,0,1,.089-.033l.019,0H.22L8.539,4.55,7.3,2.2a.162.162,0,0,1-.017-.049.013.013,0,0,0,0-.005l0-.007a.224.224,0,0,1,0-.095.075.075,0,0,1,.007-.02.193.193,0,0,1,.049-.082L9.249.063A.227.227,0,0,1,9.3.025.216.216,0,0,1,9.4,0h.02a.22.22,0,0,1,.062.014L19.376,3.89A.081.081,0,0,1,19.4,3.9l.006,0,.007,0,.017.01a.31.31,0,0,1,.025.023l.015.021.008.01a.079.079,0,0,1,.011.015l5.018,9.473a.221.221,0,0,1-.04.259L22.556,15.6l-.01.007-.008.006-.01.007-.014.01a.111.111,0,0,1-.023.012l-.015.006-.02.006a.145.145,0,0,1-.035.005h-.053l0,0-.016,0a.144.144,0,0,1-.025-.006l-3.5-1.372-.811-.317v.922a.22.22,0,0,1-.139.2L9.086,18.529l-.007,0A.209.209,0,0,1,9.006,18.544ZM.44,7.923v6.813L8.786,18V11.191Zm17.131,0L9.225,11.191V18l8.346-3.267V7.923ZM19.24,4.457l-1.586,1.56,4.8,9.068,1.587-1.56Zm-1.229,6.877h0v2.158l.765.3,3.155,1.235L20.488,12.3Zm0-3.706h0v3.233l2.162.848ZM8.855,4.907h0L.876,7.621,9.006,10.8l8.136-3.185L8.855,4.907Zm2.776-.949.895,1.689,5.333,1.746a.074.074,0,0,1,.023.012l.012.007L17.227,6.15ZM9.455.475,7.885,2.019l9.446,3.7L18.9,4.174,9.455.475ZM7.961,2.521,9.007,4.495l2.918.955-.92-1.737Z" transform="translate(0.125 0.125)"/>
    <path id="Stroke_3" data-name="Stroke 3" d="M9.006,18.544a.2.2,0,0,1-.073-.013l-.008,0L.14,15.089a.219.219,0,0,1-.14-.2V7.6a.209.209,0,0,1,.026-.1A.15.15,0,0,1,.06,7.46l.008-.008L.077,7.44A.07.07,0,0,1,.1,7.42a.227.227,0,0,1,.089-.033l.019,0H.22L8.539,4.55,7.3,2.2a.162.162,0,0,1-.017-.049.013.013,0,0,0,0-.005l0-.007a.224.224,0,0,1,0-.095.075.075,0,0,1,.007-.02.193.193,0,0,1,.049-.082L9.249.063A.227.227,0,0,1,9.3.025.216.216,0,0,1,9.4,0h.02a.22.22,0,0,1,.062.014L19.376,3.89A.081.081,0,0,1,19.4,3.9l.006,0,.007,0,.017.01a.31.31,0,0,1,.025.023l.015.021.008.01a.079.079,0,0,1,.011.015l5.018,9.473a.221.221,0,0,1-.04.259L22.556,15.6l-.01.007-.008.006-.01.007-.014.01a.111.111,0,0,1-.023.012l-.015.006-.02.006a.145.145,0,0,1-.035.005h-.053l0,0-.016,0a.144.144,0,0,1-.025-.006l-3.5-1.372-.811-.317v.922a.22.22,0,0,1-.139.2L9.086,18.529l-.007,0A.209.209,0,0,1,9.006,18.544ZM.44,7.923v6.813L8.786,18V11.191Zm17.131,0L9.225,11.191V18l8.346-3.267V7.923ZM19.24,4.457l-1.586,1.56,4.8,9.068,1.587-1.56Zm-1.229,6.877h0v2.158l.765.3,3.155,1.235L20.488,12.3Zm0-3.706h0v3.233l2.162.848ZM8.855,4.907h0L.876,7.621,9.006,10.8l8.136-3.185L8.855,4.907Zm2.776-.949.895,1.689,5.333,1.746a.074.074,0,0,1,.023.012l.012.007L17.227,6.15ZM9.455.475,7.885,2.019l9.446,3.7L18.9,4.174,9.455.475ZM7.961,2.521,9.007,4.495l2.918.955-.92-1.737Z" transform="translate(0.125 0.125)" fill="none" stroke="#f2caab" stroke-miterlimit="10" stroke-width="0.25"/>
  </g>
</svg>
